# xmcd
#
# Track frame offsets:
#	150
#	17858
#	36714
#	51926
#	71053
#	88271
#	109143
#	126726
#	145512
#	165695
#	186175
#	202465
#	216908
#	234556
#	253394
#
# Disc length: 3641 seconds
#
# Revision: 2
# Processed by: cddbd v1.5.2PL0 Copyright (c) Steve Scherf et al.
# Submitted via: EasyCDDAExtractor 15.3.0.1
#
DISCID=fb0e370f
DTITLE=Ednita Nazario - Celebridades
DYEAR=2008
DGENRE=Latin
TTITLE0=Eres Libre
TTITLE1=Mas Que Un Amigo
TTITLE2=Mio
TTITLE3=Como Antes
TTITLE4=No Me Digas Adios
TTITLE5=Y Te Vas
TTITLE6=Un Corazon Hecho Pedazos
TTITLE7=Metamorfosis
TTITLE8=Gata Sin Luna
TTITLE9=Atada A Tu Volcan
TTITLE10=Perdiendo Tu Amor
TTITLE11=Mirame
TTITLE12=Tres Deseos
TTITLE13=Despues De Tanto
TTITLE14=Ahora Es Tarde Ya
EXTD=
EXTT0=
EXTT1=
EXTT2=
EXTT3=
EXTT4=
EXTT5=
EXTT6=
EXTT7=
EXTT8=
EXTT9=
EXTT10=
EXTT11=
EXTT12=
EXTT13=
EXTT14=
PLAYORDER=
